<svg width="683" height="683" viewBox="0 0 683 683" fill="none" xmlns="http://www.w3.org/2000/svg">
<path fill-rule="evenodd" clip-rule="evenodd" d="M340.125 6.68711C341.473 6.68984 341.474 6.69018 342.849 6.69297C344.349 6.69808 345.845 6.71152 347.337 6.73203C351.646 6.75773 355.911 6.90112 360.163 7.1666C368.124 7.62297 376.032 8.47364 384 9.99961C384.901 10.1606 385.803 10.3221 386.731 10.4879C390.798 11.2242 394.869 12.0475 398.924 12.9703C401.075 13.3746 403.244 13.9008 405.485 14.5582C420.154 18.3206 434.511 23.5028 447.724 30.7613C448.513 31.1658 449.301 31.5759 450.087 31.9928C451.992 32.996 453.911 33.9671 455.836 34.9332C484.008 49.2525 509.131 72.4184 527.808 97.7418C527.872 97.8279 527.936 97.9134 528 97.9996C528.835 99.1052 529.671 100.211 530.508 101.316C551.848 129.923 566.273 164.871 570.849 200.489C570.855 200.52 570.861 200.551 570.866 200.582C571.905 206.802 572.373 212.855 572.491 219.16C572.597 219.828 572.754 220.673 573 222C574.861 223.115 574.861 223.116 577 224C580.942 228.855 581.626 234.36 581.39 240.445C580.912 243.574 579.716 245.803 577.949 247.847L578 248C577.718 248.237 577.452 248.459 577.202 248.669C576.498 249.404 575.721 250.128 574.875 250.875C573 252 573 252 571 252L571.156 255.086C571.144 261.702 569.756 268.152 568.5 274.625C568.368 275.309 568.236 275.995 568.1 276.701C568.019 277.115 567.938 277.528 567.854 277.94C565.395 290.094 561.807 301.53 557 313C556.27 314.844 555.542 316.689 554.816 318.535C554.109 320.295 553.4 322.054 552.687 323.812C552.199 325.033 552.2 325.033 551.702 326.278C550.886 328.223 549.952 330.118 549 332C548.988 332.004 548.975 332.007 548.964 332.011C547.684 335.083 546.408 338.231 545.173 341.435C545.115 341.954 545.058 342.476 545 343H544.669C543.896 346.471 542.847 349.859 541.562 353.437C537.639 364.445 535.65 374.279 535.687 386L535.638 389.078C535.635 395.075 536.311 400.095 538.355 405.746C538.658 406.804 538.838 407.799 538.938 408.79C540.337 411.657 541.796 414.335 543.41 416.794C544.194 417.585 544.902 418.533 545.687 419.75C546.541 420.933 547.463 422.056 548.447 423.108C551.788 426.494 555.819 429.177 561 431C562.56 431.371 564.178 431.709 565.823 431.974C572.682 432.689 578.909 432.928 584.835 428.904C586.434 427.597 587.589 426.169 588.631 424.47C589.109 423.685 589.555 422.864 590 422C590.362 419.17 590.362 419.17 590.187 416.175L590.117 412.806C590.039 410.496 589.961 408.186 589.883 405.877C589.722 398.163 590.627 391.442 593.63 385.174C594.53 383.198 595.658 381.331 597.009 379.527C597.625 378.68 598.286 377.837 599 377L599.003 376.997C599.982 375.979 600.975 374.972 602 374L602.18 374.18C603.114 373.43 604.053 372.746 605 372.122V372C605.339 371.822 605.68 371.647 606.02 371.47C607.356 370.655 608.711 369.957 610.1 369.364C610.351 369.234 610.604 369.104 610.859 368.972C618.617 365.447 627.383 365.542 635.64 367.753C640.465 368.93 644.987 370.883 649.202 373.444C650.495 374.196 651.744 374.988 652.937 375.812C653.512 376.266 654.077 376.729 654.631 377.2C657.127 379.142 659.502 381.297 661.75 383.625C666.02 388.889 669.215 394.63 671.517 400.674C673.731 406.129 675.222 411.945 676 418C676.23 420.675 676.36 423.343 676.391 425.998C676.568 430.648 676.415 435.336 676 440C675.084 446.526 673.409 452.784 671.091 458.746C671.06 458.83 671.031 458.915 671 459H670.994C670.946 459.121 670.898 459.242 670.85 459.363C667.81 467.59 663.473 475.402 657.724 482.595C655.869 484.787 653.945 486.932 651.957 489.023C647.686 493.696 642.998 498.031 638 502C636.895 502.794 635.779 503.566 634.655 504.32C626.797 510.053 618.229 514.771 609 518C608.391 518.028 607.876 518.049 607.429 518.069C587.446 525.224 565.82 527.158 544.187 523.812C527.869 520.985 513.762 515.411 498.999 507.952C496.875 506.89 496.874 506.89 494 506C498.518 513.302 503.378 519.632 508.789 525.091C509.281 525.588 509.778 526.077 510.279 526.559C513.536 529.692 516.992 532.525 520.69 535.079C521.259 535.472 521.834 535.857 522.415 536.237C524.447 537.566 526.55 538.815 528.733 539.987C529.357 540.322 529.987 540.651 530.624 540.973C535.717 543.553 541.232 545.735 547.25 547.562C549.547 548.261 551.722 548.997 553.788 549.791C554.614 550.108 555.423 550.435 556.216 550.773C566.116 554.994 573.415 560.901 579.738 571.277C584.359 581.248 584.897 594.513 581.437 604.937C577.955 612.988 573.14 619.284 567 624.331V625C565.038 626.389 563.038 627.726 561 629L560.662 628.831C558.391 630.225 555.983 631.506 553.433 632.687C552.781 632.936 552.157 633.15 551.552 633.337C551.04 633.56 550.522 633.782 550 634C533.975 639.098 514.842 636.932 499 632C498.327 631.791 497.654 631.582 496.961 631.367C493.603 630.285 490.318 629.068 487.098 627.73C485.13 627.055 483.154 626.217 481.062 625.187C480.248 624.792 479.433 624.397 478.593 623.99C468.919 619.154 460.054 613.325 451.71 606.782C450.91 606.183 450.108 605.582 449.285 604.964C437.756 595.967 427.02 585.383 417.78 573.684C415.546 571.285 413.589 568.459 411.781 565.626C407.439 559.428 403.525 552.969 400.133 546.31C400.094 546.233 400.055 546.156 400.015 546.079C399.893 545.838 399.773 545.596 399.652 545.355C399.547 545.146 399.44 544.938 399.337 544.728C398.896 543.839 398.455 542.951 398.002 542.035C397.671 541.363 397.34 540.691 397 540C396.996 540.929 396.993 541.859 396.989 542.816C396.951 551.641 396.894 560.465 396.816 569.29C396.777 573.825 396.745 578.36 396.729 582.895C396.714 587.285 396.679 591.674 396.632 596.064C396.617 597.725 396.609 599.387 396.608 601.048C396.601 607.877 396.232 614.517 395.061 620.94C394.345 624.932 393.33 628.835 391.921 632.59C390.78 636.086 388.979 639.423 386.926 642.57C386.879 642.643 386.832 642.716 386.785 642.789C386.53 643.194 386.268 643.597 386 644L384.293 646.578C378.999 653.844 371.973 659.491 364.03 663.405C363.505 663.687 363.099 663.88 362.632 664.071C360.162 665.21 357.61 666.185 355 666.993V667C354.963 667.009 354.927 667.018 354.89 667.028C352.718 667.696 350.505 668.249 348.265 668.683C344.776 669.17 341.325 669.278 337.93 669.048C337.293 669.039 336.65 669.024 336 669V668.88C332.685 668.529 329.429 667.858 326.25 666.904C326.169 666.934 326.086 666.967 326 667C313.716 664.116 302.248 655.132 295 645C292.722 641.118 290.574 637.222 289 633C289.01 632.98 289.019 632.96 289.029 632.94C287.196 628.27 285.879 623.289 285 618C284.457 611.906 284.511 605.78 284.488 599.668C284.471 597.938 284.454 596.207 284.434 594.477C284.387 589.968 284.357 585.459 284.331 580.95C284.301 576.33 284.254 571.711 284.209 567.091C284.123 558.061 284.056 549.03 284 540C283.395 541.154 282.791 542.309 282.168 543.499C281.969 543.876 281.77 544.253 281.572 544.63C276.214 556.021 269.25 566.523 261.125 576.25L259.68 577.988C258.5 579.367 257.255 580.689 256 582L253.543 584.797C252.994 585.414 252.439 586.027 251.88 586.64C251.916 586.75 251.956 586.869 252 587C238.253 601.178 215.472 624.37 193.974 628.505C183.766 632.628 173.068 635.361 162.046 636.234C161.525 636.258 161.005 636.278 160.487 636.298C155.565 636.719 150.646 636.76 145.772 636.339C142.226 636.27 140.833 636.134 139.107 635.458C137.82 635.227 136.537 634.961 135.259 634.657C131.509 633.824 127.849 632.647 124.281 631.018C123.136 630.523 121.997 629.993 120.867 629.425C119.708 628.748 118.601 628.04 117.541 627.306C116.01 626.309 114.495 625.21 113 624C107.243 618.688 102.93 612.553 100.36 605.609C99.7703 604.238 99.213 602.827 98.6872 601.375C96.2712 589.81 97.1408 577.639 103.543 567.574C104.193 566.689 104.854 565.842 105.526 565.03C106.021 564.374 106.542 563.717 107.093 563.062C114.481 555.069 122.284 550.981 132.056 547.884C135.058 546.861 138.194 545.929 141.472 545.015C141.583 544.987 141.69 544.959 141.794 544.933C147.505 542.993 152.903 540.562 157.973 537.456C158.357 537.213 158.745 536.969 159.139 536.724C159.377 536.572 159.613 536.419 159.849 536.264C171.542 528.411 180.327 517.965 187.011 505.821C187.765 504.23 188.434 502.62 189 501C188.288 501.436 187.933 501.652 187.574 501.873C186.105 503.24 184.221 504.113 182.062 505.312C181.352 505.708 180.642 506.104 179.911 506.512C169.964 511.855 159.426 515.393 148.576 517.511C135.546 520.35 122.074 521.181 108.731 520.004C108.487 520.002 108.243 520.002 108 520V519.936C101.953 519.369 95.9351 518.392 89.9997 517C89.3014 516.837 88.6031 516.673 87.8844 516.505C72.2874 513.983 56.952 505.126 44.9997 496C41.7277 493.296 38.5905 490.467 35.609 487.516C28.7616 480.895 22.6682 473.416 17.4645 465.23C10.5556 453.785 5.99845 441.198 3.99967 428L3.60904 425.632C0.567765 403.782 5.06589 380.227 18.2633 362.282C27.5088 350.656 39.141 343.333 53.4919 340.576C54.6035 340.356 55.7206 340.171 56.8415 340.021C56.8941 340.014 56.9469 340.007 56.9997 340C57.0044 339.999 57.0096 339.999 57.0143 339.999C68.0909 338.556 79.5267 340.609 89.6794 347.203C90.0791 347.512 90.4712 347.828 90.8581 348.146C91.2403 348.423 91.6213 348.707 91.9997 349C92.6792 349.634 93.3321 350.276 93.9616 350.921C99.9756 356.788 104.015 363.905 105.691 372.433C105.853 373.783 105.984 375.14 106.08 376.498C106.134 377.029 106.183 377.566 106.222 378.109C106.244 378.907 106.252 379.689 106.248 380.456C106.305 384.672 105.953 388.883 105 393H104.538C103.88 395.164 103.011 397.271 101.899 399.379C101.929 399.566 101.963 399.771 102 400C101.039 401.816 101.039 401.816 99.6247 403.562C95.7335 408.442 95.4378 412.923 95.9997 419C97.7705 424.214 100.247 426.326 105 429C106.923 429.641 108.963 430.063 111.05 430.28C111.282 430.304 111.515 430.325 111.748 430.344C116.873 430.762 122.237 429.963 126.843 428.152C129.971 426.48 132.566 424.492 134.768 422.233C135.209 421.781 135.633 421.318 136.044 420.845C139.531 416.823 141.969 412.042 144.056 406.726C144.302 406.101 144.543 405.468 144.78 404.829C144.898 404.509 145.016 404.186 145.132 403.863C145.245 403.364 145.351 402.864 145.451 402.364C145.751 400.862 145.999 399.355 146.196 397.845C146.262 397.342 146.322 396.838 146.377 396.335C146.431 395.831 146.481 395.326 146.525 394.822C146.569 394.317 146.607 393.812 146.64 393.307C146.69 392.55 146.729 391.792 146.756 391.034C146.782 390.275 146.797 389.517 146.801 388.758C146.862 377.633 144.541 366.498 141 356C140.678 355.009 140.357 354.018 140.025 352.997C139.792 352.279 139.557 351.562 139.321 350.846C138.613 348.698 137.893 346.558 137.158 344.424C136.668 343.002 136.171 341.583 135.666 340.168C135.61 340.011 135.553 339.855 135.497 339.699C134.928 338.627 134.499 337.462 134 336V335.59C133.78 335 133.56 334.409 133.338 333.82C133.072 333.117 132.804 332.415 132.534 331.713C131.993 330.311 131.443 328.913 130.882 327.517C129.759 324.727 128.592 321.95 127.375 319.187C126.229 316.575 125.102 313.928 124.007 311.249C123.46 309.909 122.921 308.562 122.392 307.208C119.351 299.42 116.644 291.393 114.627 283.238C114.363 282.174 114.112 281.108 113.873 280.041C113.634 278.973 113.408 277.903 113.195 276.832C113.053 276.117 112.917 275.402 112.787 274.686C112.137 271.108 111.641 267.512 111.328 263.909C111.234 262.828 111.157 261.746 111.097 260.664C110.937 257.778 110.899 254.888 111 252L108.75 251.25C107.99 250.904 107.302 250.552 106.672 250.18C106.251 249.933 105.857 249.677 105.485 249.409C104.554 248.739 103.761 247.996 103.044 247.129C102.757 246.782 102.483 246.414 102.216 246.024C101.684 245.243 101.184 244.369 100.687 243.375C100.493 242.422 100.341 241.489 100.234 240.573C100.191 240.206 100.156 239.842 100.128 239.48C100.085 238.937 100.059 238.4 100.05 237.867C100.036 236.978 100.069 236.102 100.153 235.234C100.287 233.845 100.552 232.477 100.957 231.113C101.007 230.942 101.06 230.772 101.115 230.601C101.555 229.238 102.138 227.876 102.875 226.5C105 224 105 224 108 222C108.693 219.434 108.693 219.433 108.957 216.375C109.096 215.206 109.236 214.038 109.38 212.835C109.594 210.937 109.594 210.936 109.812 209C110.221 205.771 110.681 202.565 111.193 199.381C111.423 196.485 111.834 193.615 112.437 190.625L112.845 188.472C113.626 184.461 113.803 183.558 114.376 182.288C114.437 182.151 114.505 182.005 114.584 181.842C114.606 181.796 114.629 181.75 114.652 181.702C114.74 181.324 114.826 180.947 114.916 180.57C115.327 178.832 115.758 177.101 116.206 175.378C116.355 174.803 116.506 174.229 116.66 173.656C116.813 173.083 116.969 172.511 117.127 171.94C117.226 171.581 117.327 171.223 117.427 170.865C117.893 166.715 118.215 165.891 119.562 163.707C119.591 163.616 119.619 163.526 119.648 163.435C120.541 160.621 121.488 157.827 122.49 155.055C122.69 154.501 122.893 153.947 123.097 153.394C123.302 152.842 123.509 152.29 123.718 151.739C124.137 150.637 124.564 149.537 125.001 148.442C126.528 144.608 128.167 140.817 129.92 137.068C130.42 135.997 130.93 134.929 131.45 133.865C133.789 129.076 136.321 124.358 139.054 119.712C139.358 119.195 139.664 118.679 139.972 118.165C143.059 113.02 146.398 107.964 150 103C150.435 102.396 150.871 101.793 151.32 101.171C152.819 99.1117 154.357 97.0924 155.931 95.107C160.655 89.1503 165.705 83.4982 171 77.9996L173.084 75.817C173.565 75.3147 174.05 74.8159 174.536 74.3189C174.873 73.9743 175.211 73.6309 175.549 73.2887C176.064 72.7692 176.58 72.2525 177.099 71.7389C177.257 71.5831 177.415 71.4283 177.573 71.273C177.92 70.9312 178.269 70.5907 178.618 70.2516C179.205 69.6815 179.793 69.1133 180.385 68.5504C180.553 68.3913 180.722 68.2343 180.89 68.0758C181.059 67.9164 181.227 67.756 181.396 67.5973C181.542 67.4606 181.689 67.3252 181.835 67.1891C213.524 37.6234 252.992 18.1843 295.273 10.4781C297.163 9.79352 299.065 9.42875 301.324 9.14805L304.443 8.75742L307.687 8.37461L310.873 7.96836C316.066 7.33491 321.12 6.97617 326.299 6.97129C328.282 6.88205 330.268 6.81827 332.257 6.77988C334.874 6.70759 337.497 6.676 340.125 6.68711ZM342.062 240.875C343.218 240.854 344.311 240.849 345.372 240.874C350.516 241.646 355.4 242.938 359 244C359.218 248.507 359.438 253.014 359.662 257.521C359.754 259.368 359.846 261.215 359.937 263.062C360.068 265.772 360.199 268.482 360.335 271.192C360.379 272.073 360.422 272.929 360.465 273.785C360.528 275.132 360.611 276.491 360.712 277.856C360.711 278.031 360.71 278.205 360.71 278.379C360.709 278.54 360.708 278.702 360.708 278.863C360.457 294.204 365.203 309.881 376.083 321.144L378.001 323C382.719 327.856 387.58 331.98 393.467 335.33L395.376 336.375C407.08 342.915 419.275 343.49 432.372 343.654C434.269 343.676 436.165 343.704 438.062 343.736C444.039 343.84 450.017 343.919 455.995 343.974C457.017 343.983 458.009 343.991 459.001 344C465.673 344.058 472.345 344.103 479.017 344.12C479.925 344.122 480.807 344.123 481.688 344.125C484.239 344.133 486.79 344.14 489.34 344.137C490.532 344.135 490.532 344.135 491.7 344.132C498.563 344.151 505.378 343.89 512.067 342.246C512.437 342.126 512.802 342.008 513.164 341.89C515.104 341.582 517.02 341.018 518.998 340H519.001V339.004C519.226 340.306 519.385 341.234 519.46 342H519C518.401 343.542 517.805 345.086 517.222 346.634L516.5 348.562C514.941 352.653 514.086 356.024 513.964 360.031C512.978 363.243 512.115 366.488 511.472 369.781C511.136 372.29 510.872 374.795 510.683 377.291C509.01 389.183 509.027 401.67 512.704 412.75L514.001 416C516.899 423.328 520.267 430.239 524.966 436.589C535.722 449.328 549.62 457.78 566.43 459.312C580.41 459.575 594.038 455.99 604.501 446.25C614.388 435.24 617.27 422.836 617.001 408.437C616.963 407.529 616.927 406.648 616.89 405.766C616.864 404.909 616.839 404.077 616.813 403.246C616.684 400.484 616.636 399.454 618.386 397.273C622.214 395.205 622.215 395.205 626.669 394.953C631.619 395.052 634.506 396.66 638.071 399.855C645.616 407.72 648.489 415.561 648.45 426.423L648.376 429.687C648.366 437.966 647.836 444.69 644.555 452.394C634.523 472.808 618.922 485.172 597.79 493.004L595.001 494V494.818C593.36 495.289 591.711 495.719 590.054 496.11C590.036 496.073 590.018 496.036 590 496C567.751 498.796 546.625 498.734 525.383 490.675C502.331 481.352 486.117 465.471 476.312 442.5C475.01 439.245 473.726 436.055 472 433C469.534 430.073 467.158 428.242 463.332 427.441L460.812 427.562C459.579 427.594 458.523 427.701 457.579 427.905C456.071 428.062 455.113 428.591 453 430V430.263C452.435 430.758 451.865 431.334 451.26 432H451.001C450.066 433.371 449.566 434.388 449.331 435.485C447.465 439.668 447.953 442.074 450.776 455.97C451.173 457.816 451.173 457.816 451.562 459.625C458.391 491.585 468.014 523.789 492.578 546.867C504.083 556.999 519.781 569.331 535.928 570.012C537.982 570.638 540.013 571.234 542 571.887V573L549 575V574.726C550.738 575.626 552.411 576.689 554 578C554.46 578.605 554.875 579.185 555.253 579.746C555.168 579.83 555.084 579.915 555 580C557.569 584.817 557.538 589.684 557 595C555.534 599.315 553.434 602.145 549.758 604.898C539.269 611.471 524.01 610.199 512.347 607.613L510 607C497.999 603.982 486.33 597.813 476.125 590.937C474.106 589.515 472.146 588.237 470 587C469.69 587.103 469.382 587.205 469.077 587.306C468.041 586.51 467.016 585.699 466 584.875V584L463.882 582.246C454.203 574.704 445.936 565.073 438.253 555.555C437.827 555.026 437.413 554.513 437 554C418.287 531.118 406.862 502.989 400.875 474.25C400.234 470.844 399.58 467.601 398.319 464.389C397.994 463.381 397.602 462.376 397.125 461.375C396.116 459.773 395.584 458.934 394.985 458.385C393.817 456.959 392.322 455.844 390 455C383.498 454.348 379.705 455.409 375 460C373.504 462.96 372.664 465.941 372.196 469H372V470.463C371.712 472.946 371.637 475.487 371.627 478.116C371.638 479.296 371.649 480.443 371.66 481.588C371.658 485.488 371.659 489.387 371.683 493.287C371.705 496.773 371.714 500.259 371.717 503.745C371.724 510.334 371.744 516.923 371.774 523.512C371.808 531.069 371.829 538.625 371.844 546.181C371.86 554.244 371.881 562.306 371.907 570.369C371.831 576.584 371.741 582.799 371.628 589.014C371.585 591.218 371.542 593.421 371.5 595.625C371.447 598.677 371.395 601.73 371.336 604.782C371.317 605.698 371.299 606.587 371.281 607.476C371.23 610.496 371.046 613.314 370.639 616.001H370C369.176 622.59 365.968 628.072 361.875 633.188C356.902 638.518 351.723 641.654 344.386 642.337C335.534 642.428 328.72 641.652 322 636.036V636C321.225 635.07 320.436 634.308 319.598 633.649C313.578 626.792 310.63 619.481 310.307 610.078C310.299 609.466 310.29 608.866 310.282 608.271C310.277 607.914 310.272 607.559 310.267 607.204C310.178 603.946 310.099 600.69 310.047 597.431C310.031 596.265 310.015 595.133 310 594.001C309.887 586.844 309.803 579.687 309.76 572.529C309.736 567.895 309.71 563.26 309.677 558.626C309.607 548.646 309.546 538.667 309.487 528.687C309.44 520.795 309.392 512.902 309.338 505.009C309.334 504.51 309.33 504.011 309.327 503.512C309.306 500.627 309.286 497.742 309.27 494.857C309.254 491.649 309.236 488.442 309.215 485.234C309.208 484.327 309.205 483.878 309.202 483.429C309.198 482.991 309.195 482.551 309.189 481.683C309.174 477.786 309.159 473.894 309 470.001C308.265 464.017 306.946 460.638 302.25 456.688C297.112 454.021 292.021 454.014 287 457L286 458C285.785 458.353 285.579 458.7 285.382 459.042C283.638 461.499 282.672 463.954 282.062 467.188C275.421 505.491 257.802 544.729 229.394 571.805L227 574.001C224.517 576.316 222.022 578.606 219.476 580.852L217 583.001C209.942 589.239 202.386 593.833 194.148 598.313L191 600.001V600.835C190.336 601.163 189.669 601.485 189 601.798V601C177.627 605.529 166.384 609.142 154.088 609.37L151.437 609.375C144.314 609.388 138.093 608.917 131.875 605.062C130.206 603.865 128.519 602.756 126.796 601.687C125.658 600.352 124.626 598.814 123.691 597.023C122.307 592.972 122.292 588.98 123.203 585H124L124.687 583.312C128.013 577.452 132.105 575.275 138.297 573.327C140.177 572.765 142.052 572.186 143.923 571.591C143.943 571.585 143.964 571.578 143.985 571.571C145.316 571.451 146.644 571.071 148.488 570.457L150.5 569.75C153.389 568.801 156.059 567.869 158.551 566.439C171.577 561.132 184.764 553.372 191.926 541.836C193.326 540.372 194.684 538.863 196.003 537.311C201.024 535.48 201.938 533.708 210.472 517.136L212 514C220.209 497.455 224.684 480.52 228.55 462.511C228.831 461.19 229.103 459.907 229.375 458.625C230.67 452.571 232.138 446.551 232.226 440.336C231.929 435.966 231.097 433.097 228 430C220.375 426.455 215.666 426.371 209 432C208.57 433.84 208.352 434.778 208.226 435.639C208.01 436.121 207.797 436.637 207.581 437.191C207.157 438.328 206.713 439.459 206.249 440.584C205.831 440.723 205.415 440.862 205 441.001L203.609 444.094C202.256 447.538 200.562 450.503 198.537 453.593C198.099 454.242 197.674 454.871 197.25 455.501C194.104 460.167 191.01 464.651 186.828 468.462L185 470.001C174.875 478.834 163.846 484.989 151 489.001C146.172 490.303 141.066 491.313 135.809 492H134V492.221C113.377 494.608 90.6608 492.002 73.2809 482.36L70.9997 481.001C55.2004 472.172 42.4772 458.258 36.0622 441.196L34.9997 438.001C34.9365 437.811 34.8743 437.62 34.8112 437.43C34.7921 436.319 34.4547 434.96 33.7633 432.195L33.1872 430C32.6035 427.631 32.0671 425.466 31.2526 423.371C29.1565 409.797 30.737 395.745 37.3161 383.563C42.525 375.161 48.5711 370.941 58.0934 368.446L59.9997 368.001V367.158C60.0797 367.148 60.1598 367.139 60.2399 367.129C62.5044 367.369 64.7461 367.627 66.9997 368L70.3747 369.125C72.3363 369.778 72.8318 369.943 73.7917 369.567C74.6947 370.153 75.5108 370.804 76.2594 371.543C77.2787 373.288 78.1862 375.083 78.9997 377C80.4725 383.687 79.1863 388.267 75.6872 394.062C74.2242 396.357 72.9555 398.637 71.9157 400.945C71.3444 401.67 71.0023 402.476 70.7907 403.707C68.9411 408.774 68.2278 414.055 68.9997 420C72.1532 434.055 78.2268 443.757 90.5192 451.609C104.059 458.859 117.565 457.855 132 454V452.792C133.877 452.118 135.706 451.352 137.491 450.491L138 451L140.937 449.687C143.397 448.332 143.88 448.065 144.493 446.459C147.324 444.542 150.032 442.335 152.629 439.814L153 440C154.851 438.259 156.44 436.456 158.043 434.476L160.187 431.625C162.48 428.625 163.894 426.643 164.082 423.503C165.151 421.386 166.123 419.214 166.994 417H168C168.492 415.641 168.96 414.247 169.399 412.827C169.624 412.1 169.842 411.366 170.051 410.626C170.083 410.513 170.114 410.399 170.145 410.286C170.279 409.806 170.41 409.325 170.537 408.841C170.639 408.449 170.738 408.054 170.836 407.659C172.511 400.877 173.45 393.737 173.164 387.058L173 385C172.826 382.198 172.785 379.754 172.277 377.399C170.726 365.576 167.293 354.442 163.153 343.126C162.968 342.617 162.783 342.107 162.595 341.598C162.393 341.055 162.196 340.527 162 340C171.949 343.379 181.542 343.438 191.94 343.409C193.917 343.402 195.895 343.4 197.872 343.402C202.031 343.41 206.191 343.413 210.35 343.402C215.716 343.384 221.081 343.374 226.447 343.391C230.656 343.405 234.866 343.411 239.075 343.407C241.091 343.403 243.108 343.4 245.125 343.398C250.643 343.418 255.966 343.245 261.106 342.722C260.737 342.815 260.368 342.907 260 343L262.3 342.851L265.312 342.625C268.623 342.391 270.23 342.236 272.698 340.811C283.246 338.302 293 333.573 302.117 325.011C321.391 304.5 321.391 304.5 322.851 250.964L323 245L335 242V241C336.663 240.961 338.326 240.925 339.99 240.902L342.062 240.875ZM468.312 209.875C468.713 209.874 469.115 209.873 469.516 209.872C477.679 209.85 485.841 209.829 494 210.026V211C504.861 211.323 517.296 210.375 526.375 217.312C527.537 218.502 528.572 219.714 529.495 220.95C529.631 221.252 529.801 221.6 530.023 222.043L531.375 224.187C532.106 225.375 532.439 225.911 532.8 226.424C535.408 231.908 536.368 237.912 536.619 244.699L536.687 247.625C536.784 250.463 536.88 253.301 536.956 256.139C536.971 256.772 536.985 257.386 537 258H537.431C537.227 261.648 537.031 265.296 536.871 268.947C536.85 269.441 536.83 269.929 536.81 270.413C536.788 270.929 536.767 271.441 536.746 271.953C536.663 273.927 536.581 275.901 536.5 277.875C536.473 278.585 536.447 279.281 536.422 279.973C536.412 280.228 536.403 280.482 536.393 280.737C536.355 281.652 536.318 282.541 536.281 283.429C536.036 289.792 534.31 295.819 531.199 301.155C527.119 306.955 522.88 311.397 517.092 314.747C510.989 318.082 504.392 319.343 496.286 319.314C495.516 319.3 495.126 319.293 494.745 319.286C494.352 319.279 493.969 319.272 493.191 319.257C489.807 319.237 486.423 319.214 483.04 319.171C479.575 319.125 476.111 319.089 472.646 319.058C470.411 319.042 468.176 319.025 465.941 319.007C460.582 318.931 455.299 319.044 450.001 319.363V319C446.409 318.901 442.817 318.8 439.225 318.693C437.755 318.649 436.284 318.605 434.813 318.562C434.712 318.559 434.61 318.557 434.509 318.554C432.45 318.498 430.392 318.441 428.334 318.379C427.632 318.358 426.951 318.337 426.27 318.316C416.799 318.043 410.16 315.874 402.001 311C392.307 303.436 388.746 294.57 386.481 282.746L386.001 280H385.264C385.113 278.666 384.995 277.317 384.904 275.956C384.817 272.3 384.731 268.67 384.645 265.057C384.667 262.829 384.687 260.601 384.684 258.372C384.648 244.651 383.946 230.183 393.531 219.254C400.602 212.566 409.071 210.562 418.566 210.293C420.475 210.271 422.385 210.249 424.294 210.21C428.929 210.109 433.564 210.053 438.2 210.019C447.067 209.959 455.933 209.901 464.8 209.881C466.574 209.878 466.574 209.878 468.312 209.875ZM232.691 209.964C225.524 210.412 218.744 210.943 213 211C211.62 211.013 211.62 211.013 210.213 211.026C204.385 211.083 198.559 211.161 192.732 211.264C190.846 211.296 188.961 211.324 187.075 211.346H187.07C169.421 211.273 169.419 211.273 154 219C145.601 228.428 144.848 238.474 144.832 250.617C144.828 251.514 144.825 252.411 144.822 253.336C144.817 255.223 144.815 257.111 144.815 258.999C144.813 261.86 144.794 264.721 144.775 267.582C144.772 269.427 144.77 271.272 144.769 273.117C144.762 273.959 144.755 274.801 144.748 275.669C144.772 282.141 145.627 288.504 147.647 294.429C148.18 295.433 148.687 296.463 149.188 297.562L150.294 299.941C150.509 300.568 150.724 301.195 150.945 301.838C151.111 302.133 151.281 302.425 151.455 302.716C154.275 307.231 157.906 310.928 162.751 314.071C164.696 315.248 166.74 316.246 169 317V317.592C171.328 318.382 173.708 318.95 176.137 319.354C179.573 318.96 182.984 318.899 186.515 318.937C188.239 318.946 189.963 318.955 191.687 318.963C192.593 318.97 193.5 318.977 194.433 318.983C210.027 319.078 225.627 319.059 241.219 318.793C243.012 318.765 244.805 318.743 246.597 318.729C263.856 318.619 263.857 318.618 278.996 311.001L279 311C279.291 311.145 279.498 311.248 279.669 311.334C280.861 310.503 282.046 309.592 283.231 308.594C284.277 306.739 285.461 305.059 286.875 303.312C292.218 296.31 295.088 288.929 295.161 280.093C295.17 279.145 295.18 278.196 295.19 277.219C295.194 276.205 295.198 275.19 295.203 274.144C295.208 273.087 295.214 272.031 295.22 270.942C295.23 268.707 295.236 266.472 295.24 264.237C295.25 260.842 295.281 257.447 295.312 254.052C295.319 251.875 295.324 249.697 295.328 247.519C295.346 246.013 295.347 246.012 295.366 244.475C295.334 234.239 293.361 226.388 286.191 218.914C283.917 216.927 281.312 215.329 278.455 214.049C274.823 212.541 270.921 211.852 266.578 211.683L263.472 211.556L260.25 211.437L256.98 211.306C254.32 211.2 251.66 211.098 249 211V210C243.563 209.986 238.127 209.974 232.691 209.964ZM356.933 34.2096C395.318 36.7999 433.211 49.2525 464.284 71.7389C464.867 72.1674 465.433 72.5837 466 72.9996C497.884 96.3593 522.23 130.125 534.838 167.522C535.063 168.194 535.281 168.847 535.5 169.5C538.46 178.256 540.788 186.822 542 196C531.809 190.921 522.472 187.219 511.021 186.546C509.901 186.49 509.901 186.49 508.803 186.434C499.991 185.97 491.193 185.854 482.37 185.864C480.646 185.866 478.922 185.866 477.198 185.866C473.54 185.863 469.882 185.862 466.224 185.866C461.542 185.872 456.86 185.875 452.177 185.87C448.482 185.865 444.787 185.862 441.091 185.864C439.318 185.865 437.543 185.866 435.769 185.867C420.886 185.846 404.038 184.408 390.07 190.218C378.534 195.627 368.3 204.014 363.773 216.339L363 219C360.629 218.386 358.301 217.873 356 217.455V217C344.143 215.124 333.366 215.771 321.754 218.343L319 219C317.516 215.905 315.729 212.763 313.666 209.743C312.248 207.579 310.697 205.515 308.899 203.595C304.479 198.577 299.223 194.346 293.301 191.912C292.14 191.451 292.139 191.451 291 191C280.328 186.329 280.327 186.329 256.257 186.762L256.255 186.762C254.104 186.802 251.953 186.834 249.802 186.862C249.139 186.863 248.46 186.863 247.765 186.864C246.156 186.866 244.547 186.866 242.938 186.866C239.521 186.863 236.103 186.862 232.686 186.866C228.319 186.872 223.95 186.875 219.583 186.87C201.82 186.846 181.414 184.666 163.558 188.265C163.372 188.177 163.186 188.087 163 188C156.534 188.096 156.533 188.097 141.711 194.757L139 196C145.857 164.847 158.197 134.282 178.75 109.562C180.612 107.413 182.322 105.305 184 103L183.631 101.892C184.719 100.575 185.826 99.273 186.958 97.9879C188.063 97.9407 188.328 97.6956 189.707 96.4176C191.673 94.3344 193.684 92.3028 195.734 90.3209C246.247 50.4342 303.348 32.1028 356.933 34.2096Z" fill="#2A2A29"/>
<path fill-rule="evenodd" clip-rule="evenodd" d="M342.062 240.875L339.99 240.902C338.326 240.925 336.663 240.961 335 241V242L323 245L322.851 250.964C321.391 304.5 321.391 304.5 302.117 325.011C293 333.573 283.246 338.302 272.698 340.811C270.23 342.236 268.623 342.391 265.312 342.625L262.3 342.851L260 343C260.368 342.907 260.737 342.815 261.106 342.722C255.966 343.245 250.643 343.418 245.125 343.398C243.108 343.4 241.091 343.403 239.075 343.407C234.866 343.411 230.656 343.405 226.447 343.391C221.081 343.374 215.716 343.384 210.35 343.402C206.191 343.413 202.031 343.41 197.872 343.402C195.895 343.4 193.917 343.402 191.94 343.409C181.542 343.438 171.949 343.379 162 340C162.196 340.527 162.393 341.055 162.595 341.598C162.783 342.107 162.968 342.617 163.153 343.126C167.293 354.442 170.726 365.576 172.277 377.399C172.785 379.754 172.826 382.198 173 385L173.164 387.058C173.45 393.737 172.511 400.877 170.836 407.659C170.738 408.054 170.639 408.449 170.537 408.841C170.41 409.325 170.279 409.806 170.145 410.286C170.114 410.399 170.083 410.513 170.051 410.626C169.842 411.366 169.624 412.1 169.399 412.827C168.96 414.247 168.492 415.641 168 417H166.994C166.123 419.214 165.151 421.386 164.082 423.503C163.894 426.643 162.48 428.625 160.187 431.625L158.043 434.476C156.44 436.456 154.851 438.259 153 440L152.629 439.814C150.032 442.335 147.324 444.542 144.493 446.459C143.88 448.065 143.397 448.332 140.937 449.687L138 451L137.491 450.491C135.706 451.352 133.877 452.118 132 452.792V454C117.565 457.855 104.059 458.859 90.5192 451.609C78.2268 443.757 72.1532 434.055 68.9997 420C68.2278 414.055 68.9411 408.774 70.7907 403.707C71.0023 402.476 71.3444 401.67 71.9157 400.945C72.9555 398.637 74.2242 396.357 75.6872 394.062C79.1863 388.267 80.4725 383.687 78.9997 377C78.1862 375.083 77.2787 373.288 76.2594 371.543C75.5108 370.804 74.6947 370.153 73.7917 369.567C72.8318 369.943 72.3363 369.778 70.3747 369.125L66.9997 368C64.7461 367.627 62.5044 367.369 60.2399 367.129C60.1598 367.139 60.0797 367.148 59.9997 367.158V368.001L58.0934 368.446C48.5711 370.941 42.525 375.161 37.3161 383.563C30.737 395.745 29.1565 409.797 31.2526 423.371C32.0671 425.466 32.6035 427.631 33.1872 430L33.7633 432.195C34.4547 434.96 34.7921 436.319 34.8112 437.43C34.8743 437.62 34.9365 437.811 34.9997 438.001L36.0622 441.196C42.4772 458.258 55.2004 472.172 70.9997 481.001L73.2809 482.36C90.6608 492.002 113.377 494.608 134 492.221V492H135.809C141.066 491.313 146.172 490.303 151 489.001C163.846 484.989 174.875 478.834 185 470.001L186.828 468.462C191.01 464.651 194.104 460.167 197.25 455.501C197.674 454.871 198.099 454.242 198.537 453.593C200.562 450.503 202.256 447.538 203.609 444.094L205 441.001C205.415 440.862 205.831 440.723 206.249 440.584C206.713 439.459 207.157 438.328 207.581 437.191C207.797 436.637 208.01 436.121 208.226 435.639C208.352 434.778 208.57 433.84 209 432C215.666 426.371 220.375 426.455 228 430C231.097 433.097 231.929 435.966 232.226 440.336C232.138 446.551 230.67 452.571 229.375 458.625C229.103 459.907 228.831 461.19 228.55 462.511C224.684 480.52 220.209 497.455 212 514L210.472 517.136C201.938 533.708 201.024 535.48 196.003 537.311C194.684 538.863 193.326 540.372 191.926 541.836C184.764 553.372 171.577 561.132 158.551 566.439C156.059 567.869 153.389 568.801 150.5 569.75L148.488 570.457C146.644 571.071 145.316 571.451 143.985 571.571C143.964 571.578 143.943 571.585 143.923 571.591C142.052 572.186 140.177 572.765 138.297 573.327C132.105 575.275 128.013 577.452 124.687 583.312L124 585H123.203C122.292 588.98 122.307 592.972 123.691 597.023C124.626 598.814 125.658 600.352 126.796 601.687C128.519 602.756 130.206 603.865 131.875 605.062C138.093 608.917 144.314 609.388 151.437 609.375L154.088 609.37C166.384 609.142 177.627 605.529 189 601V601.798C189.669 601.485 190.336 601.163 191 600.835V600.001L194.148 598.313C202.386 593.833 209.942 589.239 217 583.001L219.476 580.852C222.022 578.606 224.517 576.316 227 574.001L229.394 571.805C257.802 544.729 275.421 505.491 282.062 467.188C282.672 463.954 283.638 461.499 285.382 459.042C285.579 458.7 285.785 458.353 286 458L287 457C292.021 454.014 297.112 454.021 302.25 456.688C306.946 460.638 308.265 464.017 309 470.001C309.159 473.894 309.174 477.786 309.189 481.683L309.202 483.429L309.215 485.234C309.236 488.442 309.254 491.649 309.27 494.857C309.286 497.742 309.306 500.627 309.327 503.512L309.338 505.009C309.392 512.902 309.44 520.795 309.487 528.687C309.546 538.667 309.607 548.646 309.677 558.626C309.71 563.26 309.736 567.895 309.76 572.529C309.803 579.687 309.887 586.844 310 594.001C310.015 595.133 310.031 596.265 310.047 597.431C310.099 600.69 310.178 603.946 310.267 607.204L310.282 608.271C310.29 608.866 310.299 609.466 310.307 610.078C310.63 619.481 313.578 626.792 319.598 633.649C320.436 634.308 321.225 635.07 322 636V636.036C328.72 641.652 335.534 642.428 344.386 642.337C351.723 641.654 356.902 638.518 361.875 633.188C365.968 628.072 369.176 622.59 370 616.001H370.639C371.046 613.314 371.23 610.496 371.281 607.476L371.336 604.782C371.395 601.73 371.447 598.677 371.5 595.625C371.542 593.421 371.585 591.218 371.628 589.014C371.741 582.799 371.831 576.584 371.907 570.369C371.881 562.306 371.86 554.244 371.844 546.181C371.829 538.625 371.808 531.069 371.774 523.512C371.744 516.923 371.724 510.334 371.717 503.745C371.714 500.259 371.705 496.773 371.683 493.287C371.659 489.387 371.658 485.488 371.66 481.588C371.649 480.443 371.638 479.296 371.627 478.116C371.637 475.487 371.712 472.946 372 470.463V469H372.196C372.664 465.941 373.504 462.96 375 460C379.705 455.409 383.498 454.348 390 455C392.322 455.844 393.817 456.959 394.985 458.385C395.584 458.934 396.116 459.773 397.125 461.375C397.602 462.376 397.994 463.381 398.319 464.389C399.58 467.601 400.234 470.844 400.875 474.25C406.862 502.989 418.287 531.118 437 554C437.413 554.513 437.827 555.026 438.253 555.555C445.936 565.073 454.203 574.704 463.882 582.246L466 584V584.875C467.016 585.699 468.041 586.51 469.077 587.306C469.382 587.205 469.69 587.103 470 587C472.146 588.237 474.106 589.515 476.125 590.937C486.33 597.813 497.999 603.982 510 607L512.347 607.613C524.01 610.199 539.269 611.471 549.758 604.898C553.434 602.145 555.534 599.315 557 595C557.538 589.684 557.569 584.817 555 580C555.084 579.915 555.168 579.83 555.253 579.746C554.875 579.185 554.46 578.605 554 578C552.411 576.689 550.738 575.626 549 574.726V575L542 573V571.887C540.013 571.234 537.982 570.638 535.928 570.012C519.781 569.331 504.083 556.999 492.578 546.867C468.014 523.789 458.391 491.585 451.562 459.625L450.776 455.97C447.953 442.074 447.465 439.668 449.331 435.485C449.566 434.388 450.066 433.371 451.001 432H451.26C451.865 431.334 452.435 430.758 453 430.263V430C455.113 428.591 456.071 428.062 457.579 427.905C458.523 427.701 459.579 427.594 460.812 427.562L463.332 427.441C467.158 428.242 469.534 430.073 472 433C473.726 436.055 475.01 439.245 476.312 442.5C486.117 465.471 502.331 481.352 525.383 490.675C546.625 498.734 567.751 498.796 590 496C590.018 496.036 590.036 496.073 590.054 496.11C591.711 495.719 593.36 495.289 595.001 494.818V494L597.79 493.004C618.922 485.172 634.523 472.808 644.555 452.394C647.836 444.69 648.366 437.966 648.376 429.687L648.45 426.423C648.489 415.561 645.616 407.72 638.071 399.855C634.506 396.66 631.619 395.052 626.669 394.953C622.215 395.205 622.214 395.205 618.386 397.273C616.636 399.454 616.684 400.484 616.813 403.246C616.839 404.077 616.864 404.909 616.89 405.766C616.927 406.648 616.963 407.529 617.001 408.437C617.27 422.836 614.388 435.24 604.501 446.25C594.038 455.99 580.41 459.575 566.43 459.312C549.62 457.78 535.722 449.328 524.966 436.589C520.267 430.239 516.899 423.328 514.001 416L512.704 412.75C509.027 401.67 509.01 389.183 510.683 377.291C510.872 374.795 511.136 372.29 511.472 369.781C512.115 366.488 512.978 363.243 513.964 360.031C514.086 356.024 514.941 352.653 516.5 348.562L517.222 346.634C517.805 345.086 518.401 343.542 519 342H519.46C519.385 341.234 519.226 340.306 519.001 339.004V340H518.998C517.02 341.018 515.104 341.582 513.164 341.89L512.067 342.246C505.378 343.89 498.563 344.151 491.7 344.132C490.532 344.135 490.532 344.135 489.34 344.137C486.79 344.14 484.239 344.133 481.688 344.125C480.807 344.123 479.925 344.122 479.017 344.12C472.345 344.103 465.673 344.058 459.001 344C458.009 343.991 457.017 343.983 455.995 343.974C450.017 343.919 444.039 343.84 438.062 343.736C436.165 343.704 434.269 343.676 432.372 343.654C419.275 343.49 407.08 342.915 395.376 336.375L393.467 335.33C387.58 331.98 382.719 327.856 378.001 323L376.083 321.144C365.203 309.881 360.457 294.204 360.708 278.863L360.71 278.379C360.71 278.205 360.711 278.031 360.712 277.856C360.611 276.491 360.528 275.132 360.465 273.785C360.422 272.929 360.379 272.073 360.335 271.192C360.199 268.482 360.068 265.772 359.937 263.062C359.846 261.215 359.754 259.368 359.662 257.521C359.438 253.014 359.218 248.507 359 244C355.4 242.938 350.516 241.646 345.372 240.874C344.311 240.849 343.218 240.854 342.062 240.875ZM313 344C309.756 342.757 307.216 342.687 303.812 343.562C300.528 346.167 298.279 348.84 297.726 353.113C297.933 358.548 299.762 362.15 303.527 366.015C314.64 374.934 327.361 379.073 341.148 379.236C341.65 379.242 342.153 379.242 342.657 379.238C344.421 379.222 346.203 379.142 348 379C360.027 376.987 372.546 371.572 380.437 362.062C382.654 357.718 383.444 354.121 382.437 349.312C380.408 346.048 378.444 344.689 375 343C369.271 342.788 366.179 345.022 361.898 348.441C358.96 350.853 356.315 352.641 353.293 353.919C353.143 353.982 352.993 354.044 352.842 354.104C352.626 354.118 352.384 354.137 352.099 354.162C351.382 354.297 350.684 354.427 349.988 354.558L347.693 354.978L345.312 355.437C344.07 355.667 342.829 355.899 341.588 356.131C341.183 356.138 340.78 356.142 340.379 356.137C333.571 356.056 327.136 354.302 321.355 350.058C318.61 347.959 315.885 345.903 313 344Z" fill="#D9D9D9"/>
<path fill-rule="evenodd" clip-rule="evenodd" d="M232.691 209.964C225.524 210.412 218.744 210.943 213 211C211.62 211.013 211.62 211.013 210.213 211.026C204.385 211.083 198.559 211.161 192.732 211.264C190.846 211.296 188.961 211.324 187.075 211.346H187.07C169.421 211.273 169.419 211.273 154 219C145.601 228.428 144.848 238.474 144.832 250.617C144.828 251.514 144.825 252.411 144.822 253.336C144.817 255.223 144.815 257.111 144.815 258.999C144.813 261.86 144.794 264.721 144.775 267.582C144.772 269.427 144.77 271.272 144.769 273.117L144.748 275.669C144.772 282.141 145.627 288.504 147.647 294.429C148.18 295.433 148.687 296.463 149.188 297.562L150.294 299.941C150.509 300.568 150.724 301.195 150.945 301.838C151.111 302.133 151.281 302.425 151.455 302.716C154.275 307.231 157.906 310.928 162.751 314.071C164.696 315.248 166.74 316.246 169 317V317.592C171.328 318.382 173.708 318.95 176.137 319.354C179.573 318.96 182.984 318.899 186.515 318.937C188.239 318.946 189.963 318.955 191.687 318.963C192.593 318.97 193.5 318.977 194.433 318.983C210.027 319.078 225.627 319.059 241.219 318.793C243.012 318.765 244.805 318.743 246.597 318.729C263.856 318.619 263.857 318.618 278.996 311.001L279 311C279.291 311.145 279.498 311.248 279.669 311.334C280.861 310.503 282.046 309.592 283.231 308.594C284.277 306.739 285.461 305.059 286.875 303.312C292.218 296.31 295.088 288.929 295.161 280.093L295.19 277.219L295.203 274.144C295.208 273.087 295.214 272.031 295.22 270.942C295.23 268.707 295.236 266.472 295.24 264.237C295.25 260.842 295.281 257.447 295.312 254.052C295.319 251.875 295.324 249.697 295.328 247.519C295.346 246.013 295.347 246.012 295.366 244.475C295.334 234.239 293.361 226.388 286.191 218.914C283.917 216.927 281.312 215.329 278.455 214.049C274.823 212.541 270.921 211.852 266.578 211.683L263.472 211.556L260.25 211.437L256.98 211.306C254.32 211.2 251.66 211.098 249 211V210C243.563 209.986 238.127 209.974 232.691 209.964ZM248 244C238.72 238.45 228.799 240.407 220.711 246.976C216.393 252.083 214.517 257.14 214.55 263.808L214.625 266.125C214.639 274.424 215.982 280.543 221.246 287.164C225.628 291.751 230.237 293.222 236.5 293.5C243.42 293.212 247.798 291.055 252.812 286.375C255.971 282.096 257.41 277.278 257.987 272.25C258.099 271.689 258.152 271.018 258.23 270.004C258.228 269.812 258.225 269.621 258.222 269.431C258.341 267.32 258.34 265.182 258.277 263.043C258.239 262.63 258.192 262.223 258.139 261.822C258.044 260.037 257.775 258.372 257.017 256.799C255.391 251.847 252.363 247.795 248 244Z" fill="#D9D9D9"/>
<path fill-rule="evenodd" clip-rule="evenodd" d="M468.312 209.875L464.8 209.881C455.933 209.901 447.067 209.959 438.2 210.019C433.564 210.053 428.929 210.109 424.294 210.21C422.385 210.249 420.475 210.271 418.566 210.293C409.071 210.562 400.602 212.566 393.531 219.254C383.946 230.183 384.648 244.651 384.684 258.372C384.687 260.601 384.667 262.829 384.645 265.057C384.731 268.67 384.817 272.3 384.904 275.956C384.995 277.317 385.113 278.666 385.264 280H386.001L386.481 282.746C388.746 294.57 392.307 303.436 402.001 311C410.16 315.874 416.799 318.043 426.27 318.316C426.951 318.337 427.632 318.358 428.334 318.379C430.392 318.441 432.45 318.498 434.509 318.554L434.813 318.562C436.284 318.605 437.755 318.649 439.225 318.693C442.817 318.8 446.409 318.901 450.001 319V319.363C455.299 319.044 460.582 318.931 465.941 319.007C468.176 319.025 470.411 319.042 472.646 319.058C476.111 319.089 479.575 319.125 483.04 319.171C486.423 319.214 489.807 319.237 493.191 319.257L494.745 319.286L496.286 319.314C504.392 319.343 510.989 318.082 517.092 314.747C522.88 311.397 527.119 306.955 531.199 301.155C534.31 295.819 536.036 289.792 536.281 283.429C536.318 282.541 536.355 281.652 536.393 280.737L536.422 279.973C536.447 279.281 536.473 278.585 536.5 277.875C536.581 275.901 536.663 273.927 536.746 271.953C536.767 271.441 536.788 270.929 536.81 270.413L536.871 268.947C537.031 265.296 537.227 261.648 537.431 258H537L536.956 256.139C536.88 253.301 536.784 250.463 536.687 247.625L536.619 244.699C536.368 237.912 535.408 231.908 532.8 226.424C532.439 225.911 532.106 225.375 531.375 224.187L530.023 222.043C529.801 221.6 529.631 221.252 529.495 220.95C528.572 219.714 527.537 218.502 526.375 217.312C517.296 210.375 504.861 211.323 494 211V210.026C485.841 209.829 477.679 209.85 469.516 209.872L468.312 209.875ZM457.001 244C450.037 240.321 443.329 239.768 436.508 242.75C436.491 242.757 436.475 242.765 436.458 242.772C436.298 242.842 436.139 242.913 435.979 242.987C435.853 243.045 435.727 243.105 435.601 243.166L435.554 243.188C435.479 243.224 435.404 243.26 435.33 243.297C435.15 243.386 434.969 243.478 434.789 243.572C434.729 243.603 434.669 243.636 434.609 243.668C434.407 243.775 434.204 243.885 434.001 244C433.695 244.225 433.396 244.452 433.105 244.681C428.733 248.115 425.944 251.972 424.434 257.484C422.742 267.302 423.636 276.904 429.188 285.312C433.32 289.26 436.9 292.48 442.68 293.449C443.233 293.471 443.775 293.483 444.309 293.485C444.697 293.519 445.094 293.546 445.501 293.562C447.286 293.471 448.906 293.26 450.413 292.917C453.399 292.282 456.186 291.064 459.001 289C459.464 288.547 459.901 288.093 460.316 287.64C460.812 287.204 461.311 286.741 461.813 286.25C465.685 280.497 467.068 278.438 467.076 272.857C467.332 270.908 467.456 268.843 467.501 266.625C467.495 264.363 467.361 262.253 467.056 260.257C466.958 258.155 466.723 256.707 465.82 255.228C465.332 253.846 464.719 252.511 463.965 251.205C463.976 251.139 463.989 251.07 464.001 251C463.458 250.185 462.936 249.474 462.409 248.828C461.6 247.728 460.678 246.642 459.626 245.562C458.935 245.151 458.246 244.765 457.561 244.403C457.379 244.27 457.192 244.136 457.001 244Z" fill="#D9D9D9"/>
<path d="M356.933 34.2096C303.348 32.1028 246.247 50.4342 195.734 90.3209C193.684 92.3028 191.673 94.3344 189.707 96.4176C188.328 97.6956 188.063 97.9407 186.958 97.9879C185.826 99.273 184.719 100.575 183.631 101.892L184 103C182.322 105.305 180.612 107.413 178.75 109.562C158.197 134.282 145.857 164.847 139 196L141.711 194.757C156.533 188.097 156.534 188.096 163 188C163.186 188.087 163.372 188.177 163.558 188.265C181.414 184.666 201.82 186.846 219.583 186.87C223.95 186.875 228.319 186.872 232.686 186.866C236.103 186.862 239.521 186.863 242.938 186.866C244.547 186.866 246.156 186.866 247.765 186.864C248.46 186.863 249.139 186.863 249.802 186.862C251.953 186.834 254.104 186.802 256.255 186.762L256.257 186.762C280.327 186.329 280.328 186.329 291 191L293.301 191.912C299.223 194.346 304.479 198.577 308.899 203.595C310.697 205.515 312.248 207.579 313.666 209.743C315.729 212.763 317.516 215.905 319 219L321.754 218.343C333.366 215.771 344.143 215.124 356 217V217.455C358.301 217.873 360.629 218.386 363 219L363.773 216.339C368.3 204.014 378.534 195.627 390.07 190.218C404.038 184.408 420.886 185.846 435.769 185.867C437.543 185.866 439.318 185.865 441.091 185.864C444.787 185.862 448.482 185.865 452.177 185.87C456.86 185.875 461.542 185.872 466.224 185.866C469.882 185.862 473.54 185.863 477.198 185.866C478.922 185.866 480.646 185.866 482.37 185.864C491.193 185.854 499.991 185.97 508.803 186.434C509.901 186.49 509.901 186.49 511.021 186.546C522.472 187.219 531.809 190.921 542 196C540.788 186.822 538.46 178.256 535.5 169.5L534.838 167.522C522.23 130.125 497.884 96.3593 466 72.9996L464.284 71.7389C433.211 49.2525 395.318 36.7999 356.933 34.2096Z" fill="#D9D9D9"/>
<path d="M220.711 246.976C228.799 240.407 238.72 238.45 248 244C252.363 247.795 255.391 251.847 257.017 256.799C257.775 258.372 258.044 260.037 258.139 261.822C258.192 262.223 258.239 262.63 258.277 263.043C258.34 265.182 258.341 267.32 258.222 269.431C258.225 269.621 258.228 269.812 258.23 270.004C258.152 271.018 258.099 271.689 257.987 272.25C257.41 277.278 255.971 282.096 252.812 286.375C247.798 291.055 243.42 293.212 236.5 293.5C230.237 293.222 225.628 291.751 221.246 287.164C215.982 280.543 214.639 274.424 214.625 266.125L214.55 263.808C214.517 257.14 216.393 252.083 220.711 246.976Z" fill="#D9D9D9"/>
<path d="M220.711 246.976C228.799 240.407 238.72 238.45 248 244C252.363 247.795 255.391 251.847 257.017 256.799C257.775 258.372 258.044 260.037 258.139 261.822C258.192 262.223 258.239 262.63 258.277 263.043C258.34 265.182 258.341 267.32 258.222 269.431C258.225 269.621 258.228 269.812 258.23 270.004C258.152 271.018 258.099 271.689 257.987 272.25C257.41 277.278 255.971 282.096 252.812 286.375C247.798 291.055 243.42 293.212 236.5 293.5C230.237 293.222 225.628 291.751 221.246 287.164C215.982 280.543 214.639 274.424 214.625 266.125L214.55 263.808C214.517 257.14 216.393 252.083 220.711 246.976Z" fill="#2A2A29"/>
<path d="M436.508 242.75C443.329 239.768 450.037 240.321 457.001 244C457.192 244.136 457.379 244.27 457.561 244.403C458.246 244.765 458.935 245.151 459.626 245.562C460.678 246.642 461.6 247.728 462.409 248.828C462.936 249.474 463.458 250.185 464.001 251C463.989 251.07 463.976 251.139 463.965 251.205C464.719 252.511 465.332 253.846 465.82 255.228C466.723 256.707 466.958 258.155 467.056 260.257C467.361 262.253 467.495 264.363 467.501 266.625C467.456 268.843 467.332 270.908 467.076 272.857C467.068 278.438 465.685 280.497 461.813 286.25C461.311 286.741 460.812 287.204 460.316 287.64C459.901 288.093 459.464 288.547 459.001 289C456.186 291.064 453.399 292.282 450.413 292.917C448.906 293.26 447.286 293.471 445.501 293.562C445.094 293.546 444.697 293.519 444.309 293.485C443.775 293.483 443.233 293.471 442.68 293.449C436.9 292.48 433.32 289.26 429.188 285.312C423.636 276.904 422.742 267.302 424.434 257.484C425.944 251.972 428.733 248.115 433.105 244.681C433.396 244.452 433.695 244.225 434.001 244C434.204 243.885 434.407 243.775 434.609 243.668C434.669 243.636 434.729 243.603 434.789 243.572C434.969 243.478 435.15 243.386 435.33 243.297C435.404 243.26 435.479 243.224 435.554 243.188L435.601 243.166C435.727 243.105 435.853 243.045 435.979 242.987C436.139 242.913 436.298 242.842 436.458 242.772C436.475 242.765 436.491 242.757 436.508 242.75Z" fill="#D9D9D9"/>
<path d="M436.508 242.75C443.329 239.768 450.037 240.321 457.001 244C457.192 244.136 457.379 244.27 457.561 244.403C458.246 244.765 458.935 245.151 459.626 245.562C460.678 246.642 461.6 247.728 462.409 248.828C462.936 249.474 463.458 250.185 464.001 251C463.989 251.07 463.976 251.139 463.965 251.205C464.719 252.511 465.332 253.846 465.82 255.228C466.723 256.707 466.958 258.155 467.056 260.257C467.361 262.253 467.495 264.363 467.501 266.625C467.456 268.843 467.332 270.908 467.076 272.857C467.068 278.438 465.685 280.497 461.813 286.25C461.311 286.741 460.812 287.204 460.316 287.64C459.901 288.093 459.464 288.547 459.001 289C456.186 291.064 453.399 292.282 450.413 292.917C448.906 293.26 447.286 293.471 445.501 293.562C445.094 293.546 444.697 293.519 444.309 293.485C443.775 293.483 443.233 293.471 442.68 293.449C436.9 292.48 433.32 289.26 429.188 285.312C423.636 276.904 422.742 267.302 424.434 257.484C425.944 251.972 428.733 248.115 433.105 244.681C433.396 244.452 433.695 244.225 434.001 244C434.204 243.885 434.407 243.775 434.609 243.668C434.669 243.636 434.729 243.603 434.789 243.572C434.969 243.478 435.15 243.386 435.33 243.297C435.404 243.26 435.479 243.224 435.554 243.188L435.601 243.166C435.727 243.105 435.853 243.045 435.979 242.987C436.139 242.913 436.298 242.842 436.458 242.772C436.475 242.765 436.491 242.757 436.508 242.75Z" fill="#2A2A29"/>
<path d="M303.812 343.562C307.216 342.687 309.756 342.757 313 344C315.885 345.903 318.61 347.959 321.355 350.058C327.136 354.302 333.571 356.056 340.379 356.137C340.78 356.142 341.183 356.138 341.588 356.131C342.829 355.899 344.07 355.667 345.312 355.437L347.693 354.978L349.988 354.558C350.684 354.427 351.382 354.297 352.099 354.162C352.384 354.137 352.626 354.118 352.842 354.104C352.993 354.044 353.143 353.982 353.293 353.919C356.315 352.641 358.96 350.853 361.898 348.441C366.179 345.022 369.271 342.788 375 343C378.444 344.689 380.408 346.048 382.437 349.312C383.444 354.121 382.654 357.718 380.437 362.062C372.546 371.572 360.027 376.987 348 379C346.203 379.142 344.421 379.222 342.657 379.238C342.153 379.242 341.65 379.242 341.148 379.236C327.361 379.073 314.64 374.934 303.527 366.015C299.762 362.15 297.933 358.548 297.726 353.113C298.279 348.84 300.528 346.167 303.812 343.562Z" fill="#2A2A29"/>
</svg>
